<svg xmlns="http://www.w3.org/2000/svg" version="1.1" xmlns:xlink="http://www.w3.org/1999/xlink" xmlns:svgjs="http://svgjs.dev/svgjs" viewBox="0 0 1920 1080" class="overflow-hidden rounded-md drop-shadow-lg transition duration-300" style="overflow: hidden; height: 85vh;"><rect width="1920" height="1080" fill="#b4ab41"/><g clip-path="url(&quot;#SvgjsClipPath1773&quot;)"><g transform="matrix(0.04013442120787647,-1.14929945107196,1.14929945107196,0.04013442120787647,284.0967775499571,1601.5962334220822)"><path d="M0,-1080C3.2991862777847984,-997.286420165897,24.590764012736212,-745.2847689389796,19.79511766670879,-583.7185209953819C14.99947132068137,-422.1522730517843,-31.459851281657443,-257.22513473724206,-28.77387807616453,-110.60251233841406C-26.087904870671615,36.02011006041393,31.576632310512306,153.661980237912,35.910956899666274,296.0172133975861C40.24528148882024,438.3724465572602,8.868718844641037,592.5146776102165,-2.767930541240716,743.5288866196306C-14.40457992712247,894.5430956290447,-30.248196790246727,1036.0257199298057,-33.908939415624246,1202.1024674540706C-37.56968204100177,1368.1792149783355,-30.383876196109878,1580.339783007565,-24.732386293505837,1739.98937176522C-19.080896390901795,1899.638960522875,-4.122064382250973,2089.9982286275367,0,2160L 1920 2160 L 1920 -1080 Z" fill="url(&quot;#SvgjsLinearGradient1768&quot;)"/><path d="M384,-1080C385.2761014835391,-988.2744547074948,389.2410335590472,-709.1474198019353,391.65660890123445,-529.6467282449688C394.0721842434217,-350.14603668800237,397.5285687371012,-187.30887329939398,398.49345205312346,-2.995850658201391C399.45833536914574,181.3171719829912,404.4475705413523,392.6375563636823,397.44590879736813,576.2314076021869C390.44424705338395,759.8252588406915,357.5060130536783,926.5208705390232,356.4834815892185,1098.5672567728263C355.4609501247587,1270.6136430066294,386.72463360881227,1431.6042678004765,391.3107200106092,1608.5097250050055C395.89680641240614,1785.4151822095346,385.2184533351015,2068.084954167501,384,2160L 1920 2160 L 1920 -1080 Z" fill="url(&quot;#SvgjsLinearGradient1769&quot;)"/><path d="M768,-1080C761.7723259630823,-978.0700523962487,731.3296409908716,-685.1473596002563,730.6339557784938,-468.42031437749245C729.9382705661161,-251.69326915472857,764.5636526257159,-8.651675919691826,763.8258887257336,220.3622713365832C763.0881248257514,449.3762185928582,722.0145312058468,688.5392422827229,726.2073723786,905.6633691601577C730.4002135513532,1122.7874960375925,782.0174978253527,1314.0509274612184,788.9829357622527,1523.107032601192C795.9483736991527,1732.1631377411657,771.4971559603755,2053.8511721001987,768,2160L 1920 2160 L 1920 -1080 Z" fill="url(&quot;#SvgjsLinearGradient1770&quot;)"/><path d="M1152,-1080C1158.5433994652042,-1002.6086340412936,1190.0028984031621,-775.2153259027242,1191.2603967912246,-615.6518042477614C1192.517895179287,-456.0882825927987,1159.5762380884375,-275.99988654897237,1159.5449903283745,-122.61887007022354C1159.5137425683115,30.76214640852531,1186.2253747763743,159.480260008564,1191.0729102308471,304.63429462473164C1195.92044568532,449.7883292408993,1198.0381565157948,599.0038146288647,1188.6302030552115,748.3053376267823C1179.2222495946282,897.6068606246998,1142.033599590331,1036.002679620839,1134.625189467348,1200.4434326122373C1127.216779344365,1364.8841856036356,1141.2839405618715,1575.0237610105453,1144.1797423173136,1734.9498555751725C1147.0755440727557,1894.8759501397997,1150.6966237195522,2089.1583092625287,1152,2160L 1920 2160 L 1920 -1080 Z" fill="url(&quot;#SvgjsLinearGradient1771&quot;)"/><path d="M1536,-1080C1539.8392492934377,-984.4792521970908,1556.0930340811278,-683.9568309713997,1559.0354957606255,-506.87551318254475C1561.9779574401232,-329.79419539368985,1555.6390733852627,-192.78772616627447,1553.6547700769856,-17.51209326687068C1551.6704667687086,157.76353963253314,1547.5192394148194,357.81269283578797,1547.129675910963,544.778284213878C1546.7401124071066,731.743875591968,1550.88872710308,923.8877311305615,1551.3173890538467,1104.2814550016699C1551.7460510046133,1284.6751788727784,1552.2545457912036,1451.1875366074732,1549.7016476155625,1627.1406274405283C1547.1487494399214,1803.0937182735834,1538.2836079359272,2071.190104573421,1536,2160L 1920 2160 L 1920 -1080 Z" fill="url(&quot;#SvgjsLinearGradient1772&quot;)"/></g></g><defs><linearGradient x1="0.1" y1="0" x2="0" y2="1" id="SvgjsLinearGradient1768"><stop stop-color="#b4ab41" offset="0"/><stop stop-color="#b49841" offset="0"/></linearGradient><linearGradient x1="0.1" y1="0" x2="0" y2="1" id="SvgjsLinearGradient1769"><stop stop-color="#c3ba58" offset="0"/><stop stop-color="#c3a858" offset="0.2"/></linearGradient><linearGradient x1="0.1" y1="0" x2="0" y2="1" id="SvgjsLinearGradient1770"><stop stop-color="#ccc673" offset="0"/><stop stop-color="#ccb773" offset="0.4"/></linearGradient><linearGradient x1="0.1" y1="0" x2="0" y2="1" id="SvgjsLinearGradient1771"><stop stop-color="#d6d18f" offset="0"/><stop stop-color="#d6c58f" offset="0.6"/></linearGradient><linearGradient x1="0.1" y1="0" x2="0" y2="1" id="SvgjsLinearGradient1772"><stop stop-color="#e0dcaa" offset="0"/><stop stop-color="#e0d3aa" offset="0.8"/></linearGradient><clipPath id="SvgjsClipPath1773"><rect width="1920" height="1080"/></clipPath></defs></svg>